<svg version="1.1" id="Layer_1" xmlns="http://www.w3.org/2000/svg" xmlns:xlink="http://www.w3.org/1999/xlink" x="0px" y="0px"
	 width="100%" viewBox="0 0 1152 648" enable-background="new 0 0 1152 648" xml:space="preserve">
<path fill="#FFFFFF" opacity="1.000000" stroke="none" 
	d="
M776.000000,649.000000 
	C517.333374,649.000000 259.166687,649.000000 1.000035,649.000000 
	C1.000023,433.000031 1.000023,217.000061 1.000012,1.000064 
	C384.999969,1.000042 768.999939,1.000042 1153.000000,1.000021 
	C1153.000000,216.999939 1153.000000,432.999878 1153.000000,648.999878 
	C1027.500000,649.000000 902.000000,649.000000 776.000000,649.000000 
M133.561493,60.077480 
	C133.561493,60.077480 133.296768,59.826195 133.316437,59.209961 
	C132.967545,58.488297 132.618668,57.766628 132.210297,56.491364 
	C132.110321,56.334969 132.010345,56.178574 131.930222,55.484627 
	C130.938950,55.265266 129.947662,55.045902 128.430679,54.904884 
	C128.327438,55.048885 128.224213,55.192883 127.805122,55.578384 
	C128.216797,56.025917 128.628479,56.473454 129.000702,57.622234 
	C129.034302,58.087772 129.067902,58.553314 128.790604,59.424335 
	C125.739059,66.029060 120.583115,67.787788 113.173752,64.012703 
	C115.397415,61.161446 117.517662,58.443237 119.633301,55.721447 
	C119.648247,55.702213 119.599937,55.633812 119.853378,56.247417 
	C118.135048,56.154278 116.722076,56.077686 116.331116,56.056496 
	C115.530396,57.909035 114.658073,59.927250 113.785744,61.945465 
	C111.988365,60.894974 110.190994,59.844486 108.275993,58.778969 
	C108.275993,58.778969 108.199486,58.869568 108.678391,58.337849 
	C108.535187,57.648720 108.391983,56.959591 108.818840,56.136982 
	C109.218552,55.597786 109.618263,55.058594 110.017975,54.519394 
	C109.297935,54.461330 108.577904,54.403271 107.173355,54.276573 
	C106.292870,54.435345 105.412376,54.594120 104.226967,54.237114 
	C103.398834,54.344688 102.570694,54.452259 102.094833,54.514072 
	C104.112846,58.170101 105.989006,61.569118 106.993515,64.951805 
	C101.092934,64.947449 95.183891,65.105927 89.298981,64.800064 
	C88.135109,64.739563 87.064026,62.893673 86.138580,61.215698 
	C87.377602,59.550583 88.789368,56.383961 89.823135,56.502895 
	C92.880539,56.854645 95.788620,58.504303 99.194466,59.815418 
	C98.892792,57.982735 98.593224,56.162907 98.337852,54.611546 
	C91.335960,54.075249 84.429504,52.459110 81.268997,61.476093 
	C81.405418,62.605663 81.541840,63.735229 81.690880,64.969353 
	C79.853340,64.969353 78.027962,64.969353 75.663048,64.416794 
	C74.742287,62.118637 73.683174,59.864590 72.933182,57.511993 
	C71.807053,53.979523 70.166443,52.790195 67.866730,55.931263 
	C67.584076,58.926441 67.498695,62.845684 65.616615,64.128113 
	C63.077656,65.858147 59.156136,65.559151 56.662876,65.987434 
	C56.662876,62.100159 57.777603,58.215096 56.375202,56.765911 
	C54.695965,55.030659 50.867134,55.375610 47.281857,54.498505 
	C46.534248,54.562611 45.786640,54.626717 44.555523,54.340511 
	C43.603947,54.404144 42.652374,54.467777 41.041866,54.575470 
	C42.078255,55.428772 42.526485,55.797817 42.946342,57.046978 
	C42.945923,58.659393 43.147205,60.306931 42.874706,61.871975 
	C42.690731,62.928627 41.824646,64.697289 41.288757,64.688087 
	C40.189850,64.669197 39.107803,63.669167 38.628510,62.764675 
	C40.703403,56.408325 37.225277,53.393578 28.181232,54.435410 
	C27.609074,54.441151 27.036917,54.446892 25.972132,54.128971 
	C24.930290,54.222294 23.888451,54.315620 23.729086,54.329895 
	C24.276625,56.906685 25.229959,59.120174 25.055378,61.240814 
	C24.895746,63.179859 23.516129,65.018471 22.624701,67.011894 
	C23.327824,67.283737 24.531210,67.748985 25.705444,68.905167 
	C25.671270,69.595192 25.637098,70.285217 24.917921,71.057976 
	C23.959366,72.404045 23.000809,73.750107 22.497679,75.822342 
	C23.658211,75.881706 24.818737,75.992981 25.979273,75.993057 
	C143.159393,76.000946 260.339539,76.000427 377.519653,76.000427 
	C378.729950,76.000427 379.940247,76.000427 381.150543,76.000427 
	C381.174927,75.735855 381.199341,75.471291 381.223724,75.206718 
	C380.157990,75.045403 379.092224,74.884094 378.136108,74.058937 
	C379.409576,71.648598 380.683044,69.238258 381.947144,66.361282 
	C380.383636,64.970703 378.820129,63.580116 377.786652,61.399597 
	C378.496033,59.220451 379.205414,57.041309 380.296875,53.688499 
	C375.084351,55.325462 370.486877,51.731567 367.821716,57.828720 
	C367.861847,58.884129 367.902008,59.939537 367.610657,61.440628 
	C368.010620,62.902992 368.410553,64.365356 367.905945,65.769501 
	C363.394440,65.673676 358.882965,65.577850 354.346008,64.654572 
	C354.346008,61.484039 354.346008,58.313511 354.346008,54.591900 
	C352.947357,55.109123 351.717529,55.563911 350.834381,56.924980 
	C351.798065,65.856407 351.142578,66.598602 343.398987,65.159912 
	C342.980774,63.634491 342.547119,62.052887 342.253174,60.980740 
	C340.248962,62.137707 338.580353,63.100945 336.426605,63.259033 
	C336.721619,60.918205 337.016602,58.577377 337.311584,56.236546 
	C340.266479,57.070477 343.221375,57.904411 347.193695,59.025482 
	C345.843292,57.126438 345.101776,54.929867 343.925690,54.665310 
	C341.320801,54.079334 338.497589,54.463783 335.135101,54.425251 
	C334.506409,54.434395 333.877716,54.443539 332.504822,54.108425 
	C331.686371,54.080894 330.867950,54.053368 329.330292,54.038364 
	C326.752136,54.446301 324.174011,54.854237 321.431335,55.288208 
	C322.259583,55.959846 323.268433,56.777946 323.898651,57.289009 
	C322.550720,60.827835 321.380554,63.899891 320.043823,66.229561 
	C318.421570,62.490265 316.799347,58.750969 314.952759,54.494492 
	C314.295227,54.494492 312.218475,54.494492 310.645264,54.494492 
	C311.959656,58.094898 313.254852,61.642677 313.580048,65.042747 
	C310.675964,65.038750 307.771912,65.034760 304.315979,64.516541 
	C303.222290,61.728176 302.273956,58.871063 300.996307,56.169704 
	C299.564758,53.142952 298.392578,53.281082 296.092468,57.322414 
	C295.386414,59.837524 294.680359,62.352631 293.270447,65.533760 
	C291.119751,65.611687 288.947449,65.897446 286.827667,65.677452 
	C285.809814,65.571823 284.891174,64.510452 284.594604,63.713387 
	C287.971069,60.830597 287.419495,57.751816 284.241730,55.520546 
	C281.939087,53.903763 278.812073,51.886715 276.496490,55.894234 
	C276.496490,55.894234 276.530182,55.833809 276.173981,54.685604 
	C274.786407,55.052734 273.398804,55.419868 272.019104,55.846642 
	C272.019104,55.846642 271.989990,55.951115 271.990051,56.009941 
	C271.990051,56.009941 272.048767,56.006222 272.751770,55.457336 
	C271.888336,55.003201 271.024872,54.549065 269.366058,54.038891 
	C268.568970,54.030231 267.771881,54.021576 266.212738,54.004967 
	C264.497467,54.118614 262.782227,54.232262 260.198730,54.293854 
	C259.619385,54.311031 259.040039,54.328209 257.809265,54.090588 
	C250.016647,53.880547 250.016647,53.880547 249.232925,61.055882 
	C246.996567,61.055882 244.760223,61.055882 242.523865,61.055882 
	C242.809113,60.587498 243.094345,60.119118 243.379578,59.650734 
	C241.762482,57.895397 240.077148,54.626102 238.542282,54.695282 
	C235.196457,54.846081 233.306396,57.212181 234.118011,61.353222 
	C234.348969,62.531612 231.816513,64.974709 230.096558,65.613586 
	C228.295242,66.282692 225.946960,65.479362 223.952255,64.618973 
	C223.945084,64.382446 223.937912,64.145912 223.976639,64.000237 
	C223.976639,64.000237 223.900223,63.932961 224.614639,63.944042 
	C226.783768,62.970924 229.009232,62.025703 226.985474,58.276737 
	C224.921173,53.586983 221.015305,53.641289 216.183914,54.276470 
	C215.282028,54.300617 214.380157,54.324760 212.790512,54.094002 
	C209.275253,54.094002 205.759995,54.094002 203.564529,54.094002 
	C203.876801,58.221867 204.138168,61.676834 203.483063,65.020073 
	C200.784943,65.004539 198.086823,64.989006 195.093933,64.140053 
	C195.113785,61.515862 195.133621,58.891666 195.680069,56.133804 
	C196.075134,55.700203 196.470215,55.266602 196.865280,54.833000 
	C196.204666,54.776619 195.544052,54.720238 194.295929,54.466564 
	C193.892853,54.529720 193.489761,54.592876 192.459030,54.340076 
	C191.406662,54.414867 190.354294,54.489655 190.476151,54.480995 
	C190.808945,57.347702 191.336945,59.888424 191.289581,62.418373 
	C191.268936,63.520363 190.067612,64.600250 189.402496,65.690170 
	C188.603836,64.715149 187.348022,63.847527 187.089157,62.745678 
	C186.182739,58.887917 184.478119,56.068871 179.774506,54.953407 
	C175.539780,55.467224 171.305038,55.981041 166.380737,56.578526 
	C165.166718,53.486584 161.684891,53.345318 157.258682,54.426186 
	C156.920181,54.435246 156.581696,54.444305 155.396591,54.109665 
	C154.083130,54.074493 152.767197,53.970383 151.456650,54.017090 
	C147.541183,54.156639 147.147934,54.747559 147.930923,59.113853 
	C149.796539,58.035816 151.662628,56.957512 154.561859,55.282219 
	C154.339127,59.279289 154.179581,62.142635 153.082306,64.965874 
	C147.389023,64.977005 141.695724,64.988136 135.652115,64.470482 
	C135.162994,63.598705 134.673874,62.726929 134.120483,61.338322 
	C133.905670,61.101517 133.690842,60.864712 133.574997,60.560467 
	C133.574997,60.560467 133.588577,60.441479 133.561493,60.077480 
z"/>
<path fill="#E9E9E9" opacity="1.000000" stroke="none" 
	d="
M320.210419,66.971954 
	C321.380554,63.899891 322.550720,60.827835 323.898651,57.289009 
	C323.268433,56.777946 322.259583,55.959846 321.431335,55.288208 
	C324.174011,54.854237 326.752136,54.446301 329.686707,54.425652 
	C330.768799,58.265636 331.494446,61.718338 332.018921,65.445419 
	C332.341644,73.052269 332.341644,73.052269 335.620575,72.425255 
	C335.469391,70.665070 335.323273,68.963287 335.630249,67.201668 
	C341.334961,67.175598 346.586548,67.209351 351.873169,67.631187 
	C351.768524,69.574005 351.628876,71.128746 351.474335,72.849152 
	C352.472687,72.849152 353.566406,72.849152 354.282166,72.849152 
	C354.282166,70.910042 354.282166,69.152107 354.716980,67.291214 
	C357.285004,67.127983 359.450714,66.813049 361.542084,67.080330 
	C363.561920,67.338463 365.505066,68.196838 367.350128,69.162094 
	C367.685516,72.962112 367.685516,72.962112 372.154358,71.382126 
	C371.374054,70.473785 370.675385,69.660477 369.867065,68.495117 
	C371.602203,67.768379 373.432007,67.247398 375.295563,67.056984 
	C377.500671,66.831680 379.734894,66.891624 381.956512,66.827919 
	C380.683044,69.238258 379.409576,71.648598 377.620239,74.490150 
	C295.562012,74.921364 214.019653,74.921364 132.477310,74.921364 
	C132.466812,74.379768 132.456299,73.838181 132.445801,73.296585 
	C134.591812,73.107170 136.737808,72.917755 138.482895,72.763718 
	C137.562317,70.305794 136.761948,68.168854 135.980927,65.774109 
	C136.000992,65.343956 136.001724,65.171608 136.002441,64.999260 
	C141.695724,64.988136 147.389023,64.977005 153.562607,65.272263 
	C154.086655,65.764641 154.130386,65.950630 154.251038,66.479752 
	C154.777344,68.743347 155.226761,70.663834 155.733063,72.827408 
	C156.406708,72.827408 157.499329,72.827408 158.407928,72.827408 
	C158.407928,69.743927 158.407928,66.855507 158.777618,64.038101 
	C161.721603,64.394653 164.295914,64.680183 166.881958,65.193871 
	C166.893692,65.422028 166.905762,65.878784 166.642242,66.052063 
	C168.459427,68.077812 170.540115,69.930275 172.663605,71.820847 
	C172.129181,67.082710 171.616486,62.537239 171.052246,57.992676 
	C171.000702,57.993587 171.001236,58.096668 171.375153,58.199440 
	C172.022476,57.866947 172.295883,57.431686 172.940842,56.945934 
	C175.595413,56.494591 177.878403,56.093742 180.485107,55.895027 
	C181.538986,57.531116 182.653534,58.901653 182.903214,60.414890 
	C183.223755,62.357635 182.849335,64.415047 182.774338,66.423050 
	C182.317795,66.397614 181.861267,66.372169 181.404724,66.346725 
	C182.105209,67.528183 182.805679,68.709641 182.803055,68.705223 
	C186.513397,67.893158 188.779495,67.397186 191.328491,67.076233 
	C192.385086,68.086380 193.158783,68.921501 194.117142,69.757645 
	C194.442703,69.717476 194.583603,69.676285 194.724518,69.635101 
	C194.486755,69.416985 194.249008,69.198868 194.062439,68.620102 
	C194.538651,67.164131 194.963669,66.068802 195.388702,64.973480 
	C198.086823,64.989006 200.784943,65.004539 204.016083,65.354759 
	C206.123276,68.373207 206.898026,66.602318 208.178589,65.061127 
	C209.849365,65.042732 211.066040,65.082825 212.240631,65.362946 
	C212.198517,65.602974 212.147430,66.087692 212.219742,66.474869 
	C214.827332,69.329941 213.652863,71.125587 210.823074,72.832809 
	C213.597885,72.832809 215.953278,72.832809 217.759079,72.832809 
	C217.388138,70.912643 217.053223,69.179001 216.718307,67.445358 
	C217.202179,67.070221 217.686050,66.695091 218.169922,66.319954 
	C221.549057,68.681587 224.928177,71.043228 228.307297,73.404861 
	C228.529785,73.089256 228.752289,72.773659 228.974777,72.458054 
	C227.720947,70.842918 226.467133,69.227783 224.911148,67.223396 
	C228.621735,66.984749 231.983383,65.901192 232.367386,70.895386 
	C232.420654,71.588142 233.707092,72.740387 234.418976,72.737617 
	C238.815079,72.720451 243.210114,72.433266 247.338760,72.247795 
	C245.918915,70.548935 244.858505,69.280128 242.959366,67.007790 
	C247.587662,67.007790 250.735825,66.844643 253.853821,67.080376 
	C255.294922,67.189331 256.677155,68.076813 258.086090,68.611320 
	C257.414795,70.045616 256.743469,71.479904 256.056244,72.948189 
	C258.160645,72.948189 260.452820,72.948189 261.320679,72.948189 
	C261.259338,67.244797 261.199677,61.695599 261.544891,56.066170 
	C263.614227,55.301346 266.567505,57.899277 266.974792,54.012917 
	C267.771881,54.021576 268.568970,54.030231 269.762909,54.380524 
	C270.789429,55.150177 271.419098,55.578197 272.048767,56.006222 
	C272.048767,56.006222 271.990051,56.009941 272.086212,56.425690 
	C272.049561,59.822941 271.916748,62.804440 271.520142,65.973175 
	C274.007141,68.492767 274.815765,70.768120 269.938934,72.971336 
	C273.199249,72.971336 275.339478,72.971336 277.110107,72.971336 
	C276.727173,71.127625 276.358673,69.353371 275.655579,65.968262 
	C279.201385,67.634827 281.409119,68.672478 283.664307,69.732445 
	C285.372101,64.545853 289.587189,67.845032 293.851746,66.939568 
	C292.608917,69.477493 291.765747,71.199257 290.929962,72.906006 
	C292.178619,72.906006 293.626709,72.906006 294.577850,72.906006 
	C294.686890,70.965889 294.784302,69.232780 294.881714,67.499672 
	C297.430756,67.669556 300.017883,67.667435 302.483337,68.214149 
	C302.813538,68.287376 302.528748,71.134094 302.528748,72.904785 
	C303.812042,72.904785 305.733185,72.904785 307.471954,72.904785 
	C306.567688,70.170578 305.717773,67.600670 304.867828,65.030762 
	C307.771912,65.034760 310.675964,65.038750 313.941986,65.455948 
	C315.978577,67.750084 317.653198,69.631012 319.859314,72.108879 
	C320.002899,70.008278 320.106659,68.490112 320.210419,66.971954 
M197.311020,72.173355 
	C196.924316,72.246925 196.537613,72.320496 196.273773,72.370689 
	C196.482315,72.370689 196.814240,72.370689 197.311020,72.173355 
z"/>
<path fill="#4E4E4E" opacity="1.000000" stroke="none" 
	d="
M261.140015,56.146397 
	C261.199677,61.695599 261.259338,67.244797 261.320679,72.948189 
	C260.452820,72.948189 258.160645,72.948189 256.056244,72.948189 
	C256.743469,71.479904 257.414795,70.045616 258.086090,68.611320 
	C256.677155,68.076813 255.294922,67.189331 253.853821,67.080376 
	C250.735825,66.844643 247.587662,67.007790 242.959366,67.007790 
	C244.858505,69.280128 245.918915,70.548935 247.338760,72.247795 
	C243.210114,72.433266 238.815079,72.720451 234.418976,72.737617 
	C233.707092,72.740387 232.420654,71.588142 232.367386,70.895386 
	C231.983383,65.901192 228.621735,66.984749 224.911148,67.223396 
	C226.467133,69.227783 227.720947,70.842918 228.974777,72.458054 
	C228.752289,72.773659 228.529785,73.089256 228.307297,73.404861 
	C224.928177,71.043228 221.549057,68.681587 218.169922,66.319954 
	C217.686050,66.695091 217.202179,67.070221 216.718307,67.445358 
	C217.053223,69.179001 217.388138,70.912643 217.759079,72.832809 
	C215.953278,72.832809 213.597885,72.832809 210.823074,72.832809 
	C213.652863,71.125587 214.827332,69.329941 212.625122,66.379059 
	C213.131546,62.047016 213.304901,58.197964 213.478271,54.348907 
	C214.380157,54.324760 215.282028,54.300617 216.574341,54.589470 
	C216.979309,55.272324 216.993866,55.642174 216.660736,56.235481 
	C216.313065,58.871136 216.313065,61.283337 216.313065,64.512245 
	C218.785980,63.775860 220.850815,63.116238 222.952286,62.608425 
	C223.150024,62.560638 223.578735,63.468697 223.900208,63.932964 
	C223.900223,63.932961 223.976639,64.000237 223.675354,64.038055 
	C223.528641,64.490448 223.683197,64.905029 223.837753,65.319611 
	C225.946960,65.479362 228.295242,66.282692 230.096558,65.613586 
	C231.816513,64.974709 234.348969,62.531612 234.118011,61.353222 
	C233.306396,57.212181 235.196457,54.846081 238.542282,54.695282 
	C240.077148,54.626102 241.762482,57.895397 243.379578,59.650734 
	C243.094345,60.119118 242.809113,60.587498 242.523865,61.055882 
	C244.760223,61.055882 246.996567,61.055882 249.570435,60.613327 
	C249.907944,60.170773 249.904984,60.075752 249.548065,60.233826 
	C248.190094,61.854767 247.189026,63.317627 245.653320,65.561768 
	C250.182526,65.561768 253.587036,65.561768 257.316772,65.682587 
	C257.914917,61.984070 258.187775,58.164726 258.460693,54.345383 
	C259.040039,54.328209 259.619385,54.311031 260.623291,54.771172 
	C261.078583,55.547791 261.109283,55.847092 261.140015,56.146397 
M246.435135,63.481422 
	C246.574020,63.224186 246.605774,62.957100 245.538696,61.916992 
	C243.922348,61.739693 242.306000,61.562389 240.689636,61.385090 
	C240.889511,62.384399 240.899216,64.139778 241.323593,64.246521 
	C242.819031,64.622665 244.457260,64.456116 246.039551,64.419281 
	C246.181931,64.415970 246.311554,63.864422 246.435135,63.481422 
z"/>
<path fill="#282828" opacity="1.000000" stroke="none" 
	d="
M135.961594,66.031906 
	C136.761948,68.168854 137.562317,70.305794 138.482895,72.763718 
	C136.737808,72.917755 134.591812,73.107170 132.445801,73.296585 
	C132.456299,73.838181 132.466812,74.379768 132.477310,74.921364 
	C214.019653,74.921364 295.562012,74.921364 377.565399,74.822075 
	C379.092224,74.884094 380.157990,75.045403 381.223724,75.206718 
	C381.199341,75.471291 381.174927,75.735855 381.150543,76.000427 
	C379.940247,76.000427 378.729950,76.000427 377.519653,76.000427 
	C260.339539,76.000427 143.159393,76.000946 25.979273,75.993057 
	C24.818737,75.992981 23.658211,75.881706 22.733988,75.413445 
	C31.989695,74.911301 41.009094,74.818062 50.448513,74.796310 
	C52.569061,74.819511 54.269588,74.771210 56.420151,74.823128 
	C60.256580,74.857147 63.642975,74.790947 67.430069,74.796951 
	C69.395592,74.262497 70.960426,73.655846 72.521927,73.009575 
	C72.518585,72.969955 72.441978,72.948608 72.201447,73.427628 
	C72.636078,74.248497 73.311485,74.888741 73.986397,74.888214 
	C88.000412,74.877403 102.014389,74.793869 116.435753,74.796249 
	C118.217537,74.820107 119.591934,74.772423 121.391647,74.823708 
	C123.556229,74.856697 125.295502,74.790718 127.431671,74.796356 
	C131.107117,75.953171 132.857101,73.752998 133.770935,71.388084 
	C134.165543,70.366920 132.599289,68.588051 132.116058,66.888977 
	C132.871414,65.759125 133.434479,64.893677 134.258743,64.174225 
	C135.000488,64.890778 135.481033,65.461342 135.961594,66.031906 
z"/>
<path fill="#E9E9E9" opacity="1.000000" stroke="none" 
	d="
M116.028366,74.724701 
	C102.014389,74.793869 88.000412,74.877403 73.986397,74.888214 
	C73.311485,74.888741 72.636078,74.248497 72.664001,73.475243 
	C75.243195,73.043839 77.119308,73.043839 78.549507,73.043839 
	C77.649620,69.947815 76.926102,67.458580 76.202583,64.969353 
	C78.027962,64.969353 79.853340,64.969353 81.690880,64.969353 
	C81.541840,63.735229 81.405418,62.605663 81.873627,61.256561 
	C83.635551,61.315067 84.792847,61.593105 85.950150,61.871140 
	C87.064026,62.893673 88.135109,64.739563 89.298981,64.800064 
	C95.183891,65.105927 101.092934,64.947449 107.496361,65.227303 
	C108.037483,65.682388 108.075768,65.861969 108.154045,66.398239 
	C111.350533,68.950317 110.305862,70.915535 107.048386,73.046410 
	C110.287155,73.046410 112.713287,73.046410 115.362152,73.170929 
	C115.732719,73.771858 115.880539,74.248283 116.028366,74.724701 
z"/>
<path fill="#E9E9E9" opacity="1.000000" stroke="none" 
	d="
M50.028492,74.724815 
	C41.009094,74.818062 31.989695,74.911301 22.506275,75.050362 
	C23.000809,73.750107 23.959366,72.404045 25.410961,71.409447 
	C26.777788,72.217957 27.651573,72.674988 29.267603,73.520256 
	C29.267603,66.972046 29.267603,61.579605 29.660576,56.119621 
	C33.591900,55.548420 35.832912,56.525131 35.925953,60.635357 
	C35.944691,61.463295 37.286839,62.261276 38.018818,63.073067 
	C39.107803,63.669167 40.189850,64.669197 41.288757,64.688087 
	C41.824646,64.697289 42.690731,62.928627 42.874706,61.871975 
	C43.147205,60.306931 42.945923,58.659393 43.278950,56.566727 
	C44.037350,56.120346 44.463142,56.154217 44.911316,56.627411 
	C44.933701,62.284172 44.933701,67.501602 44.933701,73.019768 
	C46.252762,72.948151 48.047920,72.850693 49.903450,73.078636 
	C49.985378,73.844299 50.006935,74.284561 50.028492,74.724815 
z"/>
<path fill="#4E4E4E" opacity="1.000000" stroke="none" 
	d="
M75.932816,64.693069 
	C76.926102,67.458580 77.649620,69.947815 78.549507,73.043839 
	C77.119308,73.043839 75.243195,73.043839 72.904533,72.996223 
	C72.441978,72.948608 72.518585,72.969955 72.398697,72.637375 
	C72.954643,71.075661 73.630486,69.846512 74.607994,68.068718 
	C70.546616,68.068718 67.779274,68.068718 64.738052,67.966568 
	C63.964844,67.661926 63.465504,67.459427 62.544765,67.185776 
	C60.417549,67.162109 58.711727,67.209602 56.754715,67.195221 
	C56.395981,67.424530 56.288445,67.715706 56.099297,68.250565 
	C56.022739,68.665497 56.027790,68.836746 55.791767,69.034721 
	C55.550694,69.061447 55.069485,69.122780 55.013191,68.745834 
	C54.145535,67.760368 53.334167,67.151848 52.464382,66.598953 
	C52.405964,66.654572 52.244705,66.658966 52.417904,66.162674 
	C52.694023,64.972969 52.796944,64.279572 53.028610,63.232430 
	C55.573380,57.428253 54.241508,55.615864 47.904682,55.545528 
	C47.862061,55.302120 47.969265,54.819656 47.969265,54.819656 
	C50.867134,55.375610 54.695965,55.030659 56.375202,56.765911 
	C57.777603,58.215096 56.662876,62.100159 56.662876,65.987434 
	C59.156136,65.559151 63.077656,65.858147 65.616615,64.128113 
	C67.498695,62.845684 67.584076,58.926441 67.866730,55.931263 
	C70.166443,52.790195 71.807053,53.979523 72.933182,57.511993 
	C73.683174,59.864590 74.742287,62.118637 75.932816,64.693069 
M70.762367,62.470470 
	C69.897087,62.413044 69.027908,62.306667 68.172607,62.374683 
	C68.088028,62.381409 68.088264,63.454632 68.049126,64.032852 
	C68.985229,63.929176 69.921326,63.825497 70.762367,62.470470 
z"/>
<path fill="#4E4E4E" opacity="1.000000" stroke="none" 
	d="
M304.591919,64.773651 
	C305.717773,67.600670 306.567688,70.170578 307.471954,72.904785 
	C305.733185,72.904785 303.812042,72.904785 302.528748,72.904785 
	C302.528748,71.134094 302.813538,68.287376 302.483337,68.214149 
	C300.017883,67.667435 297.430756,67.669556 294.881714,67.499672 
	C294.784302,69.232780 294.686890,70.965889 294.577850,72.906006 
	C293.626709,72.906006 292.178619,72.906006 290.929962,72.906006 
	C291.765747,71.199257 292.608917,69.477493 293.851746,66.939568 
	C289.587189,67.845032 285.372101,64.545853 283.664307,69.732445 
	C281.409119,68.672478 279.201385,67.634827 275.655579,65.968262 
	C276.358673,69.353371 276.727173,71.127625 277.110107,72.971336 
	C275.339478,72.971336 273.199249,72.971336 269.938934,72.971336 
	C274.815765,70.768120 274.007141,68.492767 271.942535,65.977188 
	C274.509735,62.329540 275.286102,58.933277 272.011230,55.787003 
	C273.398804,55.419868 274.786407,55.052734 276.216736,55.701191 
	C276.259521,59.085991 276.259521,61.455204 276.259521,64.895882 
	C278.958496,63.656181 280.913605,62.758160 283.138916,62.007912 
	C283.581940,62.731087 283.754761,63.306496 283.927582,63.881905 
	C284.891174,64.510452 285.809814,65.571823 286.827667,65.677452 
	C288.947449,65.897446 291.119751,65.611687 294.035217,65.093475 
	C296.832001,64.653183 298.863983,64.653183 302.506500,64.653183 
	C299.881653,61.241840 298.059235,58.873318 296.236786,56.504799 
	C298.392578,53.281082 299.564758,53.142952 300.996307,56.169704 
	C302.273956,58.871063 303.222290,61.728176 304.591919,64.773651 
z"/>
<path fill="#4E4E4E" opacity="1.000000" stroke="none" 
	d="
M115.139420,73.046410 
	C112.713287,73.046410 110.287155,73.046410 107.048386,73.046410 
	C110.305862,70.915535 111.350533,68.950317 108.456375,66.166870 
	C108.610344,63.317211 108.501984,61.055603 108.393616,58.793995 
	C110.190994,59.844486 111.988365,60.894974 113.785744,61.945465 
	C114.658073,59.927250 115.530396,57.909035 116.331116,56.056496 
	C116.722076,56.077686 118.135048,56.154278 119.853378,56.247417 
	C119.599937,55.633812 119.648247,55.702213 119.633301,55.721447 
	C117.517662,58.443237 115.397415,61.161446 113.173752,64.012703 
	C120.583115,67.787788 125.739059,66.029060 129.268951,59.185448 
	C130.588135,58.312695 131.428955,57.678829 132.269775,57.044964 
	C132.618668,57.766628 132.967545,58.488297 133.069611,59.634113 
	C133.078064,60.186001 133.333313,60.313740 133.588577,60.441479 
	C133.588577,60.441479 133.574997,60.560467 133.360840,60.947243 
	C133.421310,62.220222 133.695938,63.106430 133.986435,63.994083 
	C134.002304,63.995529 133.997543,64.028229 133.997543,64.028229 
	C133.434479,64.893677 132.871414,65.759125 131.716125,66.874985 
	C129.082840,67.418381 127.041763,67.711372 124.749268,67.863678 
	C123.985359,67.567474 123.472878,67.411957 122.515663,67.185394 
	C119.169159,67.114357 116.267380,67.114357 112.097839,67.114357 
	C113.417747,69.688591 114.278587,71.367500 115.139420,73.046410 
M129.651306,61.561970 
	C129.651306,61.561970 129.557159,61.617355 129.651306,61.561970 
M113.499992,62.999996 
	C113.633331,62.799995 113.766663,62.599998 113.900002,62.400002 
	C113.599998,62.433334 113.300003,62.466667 113.499992,62.999996 
z"/>
<path fill="#4E4E4E" opacity="1.000000" stroke="none" 
	d="
M191.045593,66.901215 
	C188.779495,67.397186 186.513397,67.893158 182.803055,68.705223 
	C182.805679,68.709641 182.105209,67.528183 181.404724,66.346725 
	C181.861267,66.372169 182.317795,66.397614 182.774338,66.423050 
	C182.849335,64.415047 183.223755,62.357635 182.903214,60.414890 
	C182.653534,58.901653 181.538986,57.531116 180.449203,55.889771 
	C180.089600,55.682388 180.126785,55.747051 180.126785,55.747051 
	C184.478119,56.068871 186.182739,58.887917 187.089157,62.745678 
	C187.348022,63.847527 188.603836,64.715149 189.402496,65.690170 
	C190.067612,64.600250 191.268936,63.520363 191.289581,62.418373 
	C191.336945,59.888424 190.808945,57.347702 190.476151,54.480995 
	C190.354294,54.489655 191.406662,54.414867 192.747284,54.912167 
	C192.426514,59.299374 195.062256,63.680042 191.045593,66.901215 
z"/>
<path fill="#4E4E4E" opacity="1.000000" stroke="none" 
	d="
M320.127136,66.600754 
	C320.106659,68.490112 320.002899,70.008278 319.859314,72.108879 
	C317.653198,69.631012 315.978577,67.750084 314.426971,65.529808 
	C313.254852,61.642677 311.959656,58.094898 310.645264,54.494492 
	C312.218475,54.494492 314.295227,54.494492 314.952759,54.494492 
	C316.799347,58.750969 318.421570,62.490265 320.127136,66.600754 
z"/>
<path fill="#8A8A8A" opacity="1.000000" stroke="none" 
	d="
M213.134384,54.221455 
	C213.304901,58.197964 213.131546,62.047016 212.552795,65.991882 
	C212.147430,66.087692 212.198517,65.602974 212.444290,64.925766 
	C212.727814,62.600735 213.091797,60.870827 212.704041,59.330101 
	C212.371094,58.007141 211.179047,56.900387 210.366913,55.698025 
	C209.315033,56.893547 207.673904,57.952286 207.356781,59.318367 
	C206.937088,61.126232 207.553421,63.174595 207.724487,65.119598 
	C206.898026,66.602318 206.123276,68.373207 204.474319,65.410622 
	C204.138168,61.676834 203.876801,58.221867 203.564529,54.094002 
	C205.759995,54.094002 209.275253,54.094002 213.134384,54.221455 
z"/>
<path fill="#8A8A8A" opacity="1.000000" stroke="none" 
	d="
M86.044365,61.543419 
	C84.792847,61.593105 83.635551,61.315067 82.103889,61.037384 
	C84.429504,52.459110 91.335960,54.075249 98.337852,54.611546 
	C98.593224,56.162907 98.892792,57.982735 99.194466,59.815418 
	C95.788620,58.504303 92.880539,56.854645 89.823135,56.502895 
	C88.789368,56.383961 87.377602,59.550583 86.044365,61.543419 
z"/>
<path fill="#4E4E4E" opacity="1.000000" stroke="none" 
	d="
M351.838135,67.243111 
	C346.586548,67.209351 341.334961,67.175598 335.631378,66.862152 
	C335.351074,65.745880 335.522766,64.909294 335.999084,64.116440 
	C336.506439,64.128174 336.709106,64.096176 336.911743,64.064178 
	C338.580353,63.100945 340.248962,62.137707 342.253174,60.980740 
	C342.547119,62.052887 342.980774,63.634491 343.398987,65.159912 
	C351.142578,66.598602 351.798065,65.856407 351.004028,56.659164 
	C351.395172,60.009937 351.616638,63.626522 351.838135,67.243111 
z"/>
<path fill="#8A8A8A" opacity="1.000000" stroke="none" 
	d="
M179.950653,55.350227 
	C180.126785,55.747051 180.089600,55.682388 180.125504,55.687641 
	C177.878403,56.093742 175.595413,56.494591 172.602356,57.014721 
	C171.595291,57.454887 171.298264,57.775776 171.001236,58.096664 
	C171.001236,58.096668 171.000702,57.993587 170.714447,58.165619 
	C169.921524,60.192516 169.546844,62.099186 168.848282,63.878716 
	C168.535065,64.676636 167.573257,65.219940 166.905762,65.878784 
	C166.905762,65.878784 166.893692,65.422028 167.037552,64.788918 
	C167.890808,58.710659 163.658981,57.673645 159.739380,56.085800 
	C159.317642,56.154793 159.166290,56.254860 158.827637,56.353416 
	C158.640335,56.351910 158.285339,56.232250 158.166870,55.944641 
	C157.954300,55.255272 157.860214,54.853504 157.766129,54.451736 
	C161.684891,53.345318 165.166718,53.486584 166.380737,56.578526 
	C171.305038,55.981041 175.539780,55.467224 179.950653,55.350227 
z"/>
<path fill="#4E4E4E" opacity="1.000000" stroke="none" 
	d="
M367.481903,68.791534 
	C365.505066,68.196838 363.561920,67.338463 361.542084,67.080330 
	C359.450714,66.813049 357.285004,67.127983 354.715393,66.812027 
	C354.309814,66.117874 354.340637,65.799942 354.371460,65.482018 
	C358.882965,65.577850 363.394440,65.673676 368.798218,65.934601 
	C372.464905,66.099693 375.239349,66.099693 378.013824,66.099693 
	C377.972595,65.759377 377.931366,65.419060 377.890137,65.078735 
	C374.574158,63.717476 371.258148,62.356213 367.942169,60.994949 
	C367.902008,59.939537 367.861847,58.884129 368.193146,57.574963 
	C368.763885,57.605213 368.963196,57.889225 369.221863,58.542793 
	C371.830658,59.796276 374.380127,60.680206 376.893005,61.665234 
	C376.915863,61.972652 377.049286,62.113716 377.256653,62.189533 
	C378.820129,63.580116 380.383636,64.970703 381.951843,66.594604 
	C379.734894,66.891624 377.500671,66.831680 375.295563,67.056984 
	C373.432007,67.247398 371.602203,67.768379 369.453369,68.592270 
	C368.593475,68.958153 368.037689,68.874847 367.481903,68.791534 
z"/>
<path fill="#E9E9E9" opacity="1.000000" stroke="none" 
	d="
M224.257416,63.938507 
	C223.578735,63.468697 223.150024,62.560638 222.952286,62.608425 
	C220.850815,63.116238 218.785980,63.775860 216.313065,64.512245 
	C216.313065,61.283337 216.313065,58.871136 217.063202,56.223415 
	C220.894562,56.995850 223.975800,58.003803 227.057037,59.011761 
	C229.009232,62.025703 226.783768,62.970924 224.257416,63.938507 
z"/>
<path fill="#282828" opacity="1.000000" stroke="none" 
	d="
M52.899864,63.586166 
	C52.796944,64.279572 52.694023,64.972969 52.136578,65.937256 
	C50.138111,67.049095 48.594166,67.890068 47.050224,68.731033 
	C47.981174,70.071762 48.912125,71.412498 49.843075,72.753227 
	C48.047920,72.850693 46.252762,72.948151 44.933701,73.019768 
	C44.933701,67.501602 44.933701,62.284172 44.966202,56.254837 
	C45.012142,55.192226 45.025585,54.941525 45.039032,54.690819 
	C45.786640,54.626717 46.534248,54.562611 47.625561,54.659081 
	C47.969265,54.819656 47.862061,55.302120 47.708900,55.901478 
	C47.727928,59.204857 47.900120,61.908878 48.072308,64.612900 
	C49.681492,64.270653 51.290680,63.928410 52.899864,63.586166 
z"/>
<path fill="#8A8A8A" opacity="1.000000" stroke="none" 
	d="
M369.162506,58.173241 
	C368.963196,57.889225 368.763885,57.605213 368.335297,57.198929 
	C370.486877,51.731567 375.084351,55.325462 380.296875,53.688499 
	C379.205414,57.041309 378.496033,59.220451 377.521667,61.794563 
	C377.049286,62.113716 376.915863,61.972652 377.190399,61.302788 
	C375.164215,55.546684 373.612610,55.051994 369.162506,58.173241 
z"/>
<path fill="#8A8A8A" opacity="1.000000" stroke="none" 
	d="
M258.134949,54.217987 
	C258.187775,58.164726 257.914917,61.984070 257.449829,65.216446 
	C257.257629,61.911442 257.257629,59.193417 257.257629,55.186512 
	C254.231827,57.198566 252.068405,58.637161 249.904984,60.075752 
	C249.904984,60.075752 249.907944,60.170773 249.863968,60.187752 
	C250.016647,53.880547 250.016647,53.880547 258.134949,54.217987 
z"/>
<path fill="#8A8A8A" opacity="1.000000" stroke="none" 
	d="
M154.174133,66.136627 
	C154.130386,65.950630 154.086655,65.764641 154.031464,65.292313 
	C154.179581,62.142635 154.339127,59.279289 154.561859,55.282219 
	C151.662628,56.957512 149.796539,58.035816 147.930923,59.113853 
	C147.147934,54.747559 147.541183,54.156639 151.456650,54.017090 
	C152.767197,53.970383 154.083130,54.074493 155.736465,54.702774 
	C156.124344,57.223110 156.455643,59.198566 156.138123,61.063560 
	C155.839890,62.815269 154.856216,64.450272 154.174133,66.136627 
z"/>
<path fill="#E9E9E9" opacity="1.000000" stroke="none" 
	d="
M282.868713,61.860138 
	C280.913605,62.758160 278.958496,63.656181 276.259521,64.895882 
	C276.259521,61.455204 276.259521,59.085991 276.394836,56.275291 
	C276.530182,55.833809 276.496490,55.894234 276.911194,55.912636 
	C281.725433,55.521725 283.190979,57.855259 282.868713,61.860138 
z"/>
<path fill="#8A8A8A" opacity="1.000000" stroke="none" 
	d="
M336.669189,63.661602 
	C336.709106,64.096176 336.506439,64.128174 335.963745,63.733032 
	C335.670288,60.354752 335.716858,57.403618 335.763428,54.452477 
	C338.497589,54.463783 341.320801,54.079334 343.925690,54.665310 
	C345.101776,54.929867 345.843292,57.126438 347.193695,59.025482 
	C343.221375,57.904411 340.266479,57.070477 337.311584,56.236549 
	C337.016602,58.577377 336.721619,60.918205 336.669189,63.661602 
z"/>
<path fill="#8A8A8A" opacity="1.000000" stroke="none" 
	d="
M283.138916,62.007912 
	C283.190979,57.855259 281.725433,55.521725 276.894470,55.942917 
	C278.812073,51.886715 281.939087,53.903763 284.241730,55.520546 
	C287.419495,57.751816 287.971069,60.830597 284.261108,63.797646 
	C283.754761,63.306496 283.581940,62.731087 283.138916,62.007912 
z"/>
<path fill="#282828" opacity="1.000000" stroke="none" 
	d="
M29.267603,56.187164 
	C29.267603,61.579605 29.267603,66.972046 29.267603,73.520256 
	C27.651573,72.674988 26.777788,72.217957 25.753464,71.368080 
	C25.637098,70.285217 25.671270,69.595192 25.847919,68.237396 
	C26.148516,63.197289 26.306637,58.824959 26.464758,54.452629 
	C27.036917,54.446892 27.609074,54.441151 28.686516,54.875244 
	C29.217068,55.605774 29.242336,55.896469 29.267603,56.187164 
z"/>
<path fill="#E9E9E9" opacity="1.000000" stroke="none" 
	d="
M296.164612,56.913605 
	C298.059235,58.873318 299.881653,61.241840 302.506500,64.653183 
	C298.863983,64.653183 296.832001,64.653183 294.387146,64.760468 
	C294.680359,62.352631 295.386414,59.837524 296.164612,56.913605 
z"/>
<path fill="#8A8A8A" opacity="1.000000" stroke="none" 
	d="
M29.660576,56.119621 
	C29.242336,55.896469 29.217068,55.605774 29.115589,54.884071 
	C37.225277,53.393578 40.703403,56.408325 38.323662,62.918869 
	C37.286839,62.261276 35.944691,61.463295 35.925953,60.635357 
	C35.832912,56.525131 33.591900,55.548420 29.660576,56.119621 
z"/>
<path fill="#282828" opacity="1.000000" stroke="none" 
	d="
M154.251038,66.479752 
	C154.856216,64.450272 155.839890,62.815269 156.138123,61.063560 
	C156.455643,59.198566 156.124344,57.223110 156.159760,54.874626 
	C156.581696,54.444305 156.920181,54.435246 157.512405,54.438961 
	C157.860214,54.853504 157.954300,55.255272 158.137695,56.371727 
	C158.287323,59.379974 158.347626,61.673531 158.407928,63.967083 
	C158.407928,66.855507 158.407928,69.743927 158.407928,72.827408 
	C157.499329,72.827408 156.406708,72.827408 155.733063,72.827408 
	C155.226761,70.663834 154.777344,68.743347 154.251038,66.479752 
z"/>
<path fill="#282828" opacity="1.000000" stroke="none" 
	d="
M354.358734,65.068298 
	C354.340637,65.799942 354.309814,66.117874 354.280579,66.914986 
	C354.282166,69.152107 354.282166,70.910042 354.282166,72.849152 
	C353.566406,72.849152 352.472687,72.849152 351.474335,72.849152 
	C351.628876,71.128746 351.768524,69.574005 351.873169,67.631187 
	C351.616638,63.626522 351.395172,60.009937 350.830688,56.206024 
	C351.717529,55.563911 352.947357,55.109123 354.346008,54.591900 
	C354.346008,58.313511 354.346008,61.484039 354.358734,65.068298 
z"/>
<path fill="#8A8A8A" opacity="1.000000" stroke="none" 
	d="
M26.218445,54.290802 
	C26.306637,58.824959 26.148516,63.197289 25.862494,67.891922 
	C24.531210,67.748985 23.327824,67.283737 22.624701,67.011894 
	C23.516129,65.018471 24.895746,63.179859 25.055378,61.240814 
	C25.229959,59.120174 24.276625,56.906685 23.729086,54.329895 
	C23.888451,54.315620 24.930290,54.222294 26.218445,54.290802 
z"/>
<path fill="#282828" opacity="1.000000" stroke="none" 
	d="
M335.449280,54.438866 
	C335.716858,57.403618 335.670288,60.354752 335.659088,63.689293 
	C335.522766,64.909294 335.351074,65.745880 335.178253,66.921982 
	C335.323273,68.963287 335.469391,70.665070 335.620575,72.425255 
	C332.341644,73.052269 332.341644,73.052269 332.371826,65.314682 
	C333.033630,61.423939 333.141327,57.938309 333.249023,54.452682 
	C333.877716,54.443539 334.506409,54.434395 335.449280,54.438866 
z"/>
<path fill="#282828" opacity="1.000000" stroke="none" 
	d="
M191.328491,67.076233 
	C195.062256,63.680042 192.426514,59.299374 193.061111,55.070145 
	C193.489761,54.592876 193.892853,54.529720 194.606689,54.836601 
	C194.996140,55.560249 195.074799,55.913864 195.153473,56.267479 
	C195.133621,58.891666 195.113785,61.515862 195.241318,64.556763 
	C194.963669,66.068802 194.538651,67.164131 193.995636,68.809288 
	C193.877625,69.359116 193.932495,69.756622 193.932495,69.756622 
	C193.158783,68.921501 192.385086,68.086380 191.328491,67.076233 
z"/>
<path fill="#8A8A8A" opacity="1.000000" stroke="none" 
	d="
M367.776428,61.217789 
	C371.258148,62.356213 374.574158,63.717476 377.890137,65.078735 
	C377.931366,65.419060 377.972595,65.759377 378.013824,66.099693 
	C375.239349,66.099693 372.464905,66.099693 369.250488,65.963699 
	C368.410553,64.365356 368.010620,62.902992 367.776428,61.217789 
z"/>
<path fill="#8A8A8A" opacity="1.000000" stroke="none" 
	d="
M108.334808,58.786484 
	C108.501984,61.055603 108.610344,63.317211 108.416382,65.810188 
	C108.075768,65.861969 108.037483,65.682388 107.932182,65.235474 
	C105.989006,61.569118 104.112846,58.170101 102.094833,54.514072 
	C102.570694,54.452259 103.398834,54.344688 104.450272,54.871025 
	C105.848869,56.626480 107.024178,57.748024 108.199486,58.869568 
	C108.199486,58.869568 108.275993,58.778969 108.334808,58.786484 
z"/>
<path fill="#8A8A8A" opacity="1.000000" stroke="none" 
	d="
M227.021255,58.644249 
	C223.975800,58.003803 220.894562,56.995850 217.410858,55.999958 
	C216.993866,55.642174 216.979309,55.272324 216.911026,54.623810 
	C221.015305,53.641289 224.921173,53.586983 227.021255,58.644249 
z"/>
<path fill="#8A8A8A" opacity="1.000000" stroke="none" 
	d="
M332.876923,54.280552 
	C333.141327,57.938309 333.033630,61.423939 332.572998,65.040306 
	C331.494446,61.718338 330.768799,58.265636 330.046326,54.419388 
	C330.867950,54.053368 331.686371,54.080894 332.876923,54.280552 
z"/>
<path fill="#8A8A8A" opacity="1.000000" stroke="none" 
	d="
M272.015167,55.816818 
	C275.286102,58.933277 274.509735,62.329540 272.206329,65.789955 
	C271.916748,62.804440 272.049561,59.822941 272.086182,56.396278 
	C271.989990,55.951115 272.019104,55.846642 272.015167,55.816818 
z"/>
<path fill="#8A8A8A" opacity="1.000000" stroke="none" 
	d="
M261.544922,56.066170 
	C261.109283,55.847092 261.078583,55.547791 261.057404,54.797203 
	C262.782227,54.232262 264.497467,54.118614 266.593750,54.008942 
	C266.567505,57.899277 263.614227,55.301346 261.544922,56.066170 
z"/>
<path fill="#4E4E4E" opacity="1.000000" stroke="none" 
	d="
M108.438934,58.603710 
	C107.024178,57.748024 105.848869,56.626480 104.602730,55.128914 
	C105.412376,54.594120 106.292870,54.435345 107.582245,54.631721 
	C108.077026,55.414730 108.162903,55.842598 108.248779,56.270462 
	C108.391983,56.959591 108.535187,57.648720 108.438934,58.603710 
z"/>
<path fill="#4E4E4E" opacity="1.000000" stroke="none" 
	d="
M128.956390,54.826538 
	C129.947662,55.045902 130.938950,55.265266 131.576691,55.732452 
	C130.547394,56.046677 129.871613,56.113075 129.105881,56.086609 
	C129.015930,55.993748 128.847885,55.797253 128.891815,55.556458 
	C128.935760,55.315659 128.956390,54.826542 128.956390,54.826538 
z"/>
<path fill="#4E4E4E" opacity="1.000000" stroke="none" 
	d="
M44.797279,54.515663 
	C45.025585,54.941525 45.012142,55.192226 44.943817,55.815510 
	C44.463142,56.154217 44.037350,56.120346 43.293137,56.126667 
	C42.526485,55.797817 42.078255,55.428772 41.041866,54.575470 
	C42.652374,54.467777 43.603947,54.404144 44.797279,54.515663 
z"/>
<path fill="#282828" opacity="1.000000" stroke="none" 
	d="
M129.195831,56.179474 
	C129.871613,56.113075 130.547394,56.046677 131.566772,56.001228 
	C132.010345,56.178574 132.110321,56.334969 132.240036,56.768166 
	C131.428955,57.678829 130.588135,58.312695 129.424408,58.982704 
	C129.067902,58.553314 129.034302,58.087772 129.090942,57.092865 
	C129.181168,56.563492 129.195831,56.179474 129.195831,56.179474 
z"/>
<path fill="#8A8A8A" opacity="1.000000" stroke="none" 
	d="
M135.980927,65.774109 
	C135.481033,65.461342 135.000488,64.890778 134.258743,64.174225 
	C133.997543,64.028229 134.002304,63.995529 133.942993,63.632214 
	C133.984039,62.797649 134.084396,62.326401 134.184753,61.855152 
	C134.673874,62.726929 135.162994,63.598705 135.827271,64.734871 
	C136.001724,65.171608 136.000992,65.343956 135.980927,65.774109 
z"/>
<path fill="#8A8A8A" opacity="1.000000" stroke="none" 
	d="
M108.533813,56.203720 
	C108.162903,55.842598 108.077026,55.414730 107.924500,54.666039 
	C108.577904,54.403271 109.297935,54.461330 110.017975,54.519394 
	C109.618263,55.058594 109.218552,55.597786 108.533813,56.203720 
z"/>
<path fill="#4E4E4E" opacity="1.000000" stroke="none" 
	d="
M195.416763,56.200642 
	C195.074799,55.913864 194.996140,55.560249 194.900452,54.935249 
	C195.544052,54.720238 196.204666,54.776619 196.865280,54.833000 
	C196.470215,55.266602 196.075134,55.700203 195.416763,56.200642 
z"/>
<path fill="#4E4E4E" opacity="1.000000" stroke="none" 
	d="
M129.105881,56.086609 
	C129.195831,56.179474 129.181168,56.563492 129.110657,56.742241 
	C128.628479,56.473454 128.216797,56.025917 128.075333,55.550941 
	C128.489548,55.657806 128.656998,55.749062 128.847885,55.797253 
	C128.847885,55.797253 129.015930,55.993748 129.105881,56.086609 
z"/>
<path fill="#8A8A8A" opacity="1.000000" stroke="none" 
	d="
M272.400269,55.731781 
	C271.419098,55.578197 270.789429,55.150177 270.160583,54.408543 
	C271.024872,54.549065 271.888336,55.003201 272.400269,55.731781 
z"/>
<path fill="#282828" opacity="1.000000" stroke="none" 
	d="
M134.152618,61.596737 
	C134.084396,62.326401 133.984039,62.797649 133.927124,63.630768 
	C133.695938,63.106430 133.421310,62.220222 133.311356,60.980965 
	C133.690842,60.864712 133.905670,61.101517 134.152618,61.596737 
z"/>
<path fill="#282828" opacity="1.000000" stroke="none" 
	d="
M128.891815,55.556458 
	C128.656998,55.749062 128.489548,55.657806 128.233276,55.430191 
	C128.224213,55.192883 128.327438,55.048885 128.693542,54.865715 
	C128.956390,54.826542 128.935760,55.315659 128.891815,55.556458 
z"/>
<path fill="#282828" opacity="1.000000" stroke="none" 
	d="
M133.575043,60.259480 
	C133.333313,60.313740 133.078064,60.186001 133.059784,59.942230 
	C133.296768,59.826195 133.561493,60.077480 133.575043,60.259480 
z"/>
<path fill="#E9E9E9" opacity="1.000000" stroke="none" 
	d="
M223.895004,64.969292 
	C223.683197,64.905029 223.528641,64.490448 223.652405,63.992619 
	C223.937912,64.145912 223.945084,64.382446 223.895004,64.969292 
z"/>
<path fill="#FFFFFF" opacity="1.000000" stroke="none" 
	d="
M158.777618,64.038101 
	C158.347626,61.673531 158.287323,59.379974 158.256180,56.659336 
	C158.285339,56.232250 158.640335,56.351910 158.950409,56.461723 
	C159.622452,56.632938 159.872208,56.481384 160.009766,56.116867 
	C163.658981,57.673645 167.890808,58.710659 167.025818,64.560760 
	C164.295914,64.680183 161.721603,64.394653 158.777618,64.038101 
z"/>
<path fill="#FFFFFF" opacity="1.000000" stroke="none" 
	d="
M208.178589,65.061127 
	C207.553421,63.174595 206.937088,61.126232 207.356781,59.318367 
	C207.673904,57.952286 209.315033,56.893547 210.366913,55.698025 
	C211.179047,56.900387 212.371094,58.007141 212.704041,59.330101 
	C213.091797,60.870827 212.727814,62.600735 212.486389,64.685730 
	C211.066040,65.082825 209.849365,65.042732 208.178589,65.061127 
z"/>
<path fill="#282828" opacity="1.000000" stroke="none" 
	d="
M166.642242,66.052063 
	C167.573257,65.219940 168.535065,64.676636 168.848282,63.878716 
	C169.546844,62.099186 169.921524,60.192516 170.765976,58.164711 
	C171.616486,62.537239 172.129181,67.082710 172.663605,71.820847 
	C170.540115,69.930275 168.459427,68.077812 166.642242,66.052063 
z"/>
<path fill="#8A8A8A" opacity="1.000000" stroke="none" 
	d="
M367.350128,69.162094 
	C368.037689,68.874847 368.593475,68.958153 369.562988,68.944321 
	C370.675385,69.660477 371.374054,70.473785 372.154358,71.382126 
	C367.685516,72.962112 367.685516,72.962112 367.350128,69.162094 
z"/>
<path fill="#4E4E4E" opacity="1.000000" stroke="none" 
	d="
M197.228592,72.272018 
	C196.814240,72.370689 196.482315,72.370689 196.273773,72.370689 
	C196.537613,72.320496 196.924316,72.246925 197.228592,72.272018 
z"/>
<path fill="#4E4E4E" opacity="1.000000" stroke="none" 
	d="
M194.117142,69.757645 
	C193.932495,69.756622 193.877625,69.359116 193.944443,69.169937 
	C194.249008,69.198868 194.486755,69.416985 194.724518,69.635101 
	C194.583603,69.676285 194.442703,69.717476 194.117142,69.757645 
z"/>
<path fill="#282828" opacity="1.000000" stroke="none" 
	d="
M171.375153,58.199436 
	C171.298264,57.775776 171.595291,57.454887 172.230804,57.065216 
	C172.295883,57.431686 172.022476,57.866947 171.375153,58.199436 
z"/>
<path fill="#FFFFFF" opacity="1.000000" stroke="none" 
	d="
M249.548065,60.233829 
	C252.068405,58.637161 254.231827,57.198566 257.257629,55.186512 
	C257.257629,59.193417 257.257629,61.911442 257.124573,65.095619 
	C253.587036,65.561768 250.182526,65.561768 245.653320,65.561768 
	C247.189026,63.317627 248.190094,61.854767 249.548065,60.233829 
z"/>
<path fill="#FFFFFF" opacity="1.000000" stroke="none" 
	d="
M246.447098,63.567474 
	C246.311554,63.864422 246.181931,64.415970 246.039551,64.419281 
	C244.457260,64.456116 242.819031,64.622665 241.323593,64.246521 
	C240.899216,64.139778 240.889511,62.384399 240.689636,61.385086 
	C242.306000,61.562389 243.922348,61.739693 245.568756,62.480835 
	C245.881592,63.218945 246.164352,63.393211 246.447098,63.567474 
z"/>
<path fill="#8A8A8A" opacity="1.000000" stroke="none" 
	d="
M246.441116,63.524448 
	C246.164352,63.393211 245.881592,63.218945 246.064606,62.862419 
	C246.605774,62.957100 246.574020,63.224186 246.441116,63.524448 
z"/>
<path fill="#FFFFFF" opacity="1.000000" stroke="none" 
	d="
M115.362160,73.170929 
	C114.278587,71.367500 113.417747,69.688591 112.097839,67.114357 
	C116.267380,67.114357 119.169159,67.114357 122.513885,67.543999 
	C122.293327,70.224007 121.629837,72.474373 120.966339,74.724731 
	C119.591934,74.772423 118.217537,74.820107 116.435753,74.796249 
	C115.880539,74.248283 115.732719,73.771858 115.362160,73.170929 
z"/>
<path fill="#E9E9E9" opacity="1.000000" stroke="none" 
	d="
M55.069485,69.122780 
	C55.069485,69.122780 55.550694,69.061447 56.150131,69.049347 
	C59.263580,69.986557 62.543495,73.610291 62.966164,67.256927 
	C63.465504,67.459427 63.964844,67.661926 64.741791,68.306686 
	C65.689392,70.740883 66.359383,72.732811 67.029373,74.724747 
	C63.642975,74.790947 60.256580,74.857147 56.416340,74.449997 
	C55.607845,72.633667 55.253189,71.290688 54.947361,69.742737 
	C54.996185,69.537773 55.069485,69.122780 55.069485,69.122780 
z"/>
<path fill="#FFFFFF" opacity="1.000000" stroke="none" 
	d="
M54.898537,69.947708 
	C55.253189,71.290688 55.607845,72.633667 55.966309,74.349777 
	C54.269588,74.771210 52.569061,74.819511 50.448513,74.796310 
	C50.006935,74.284561 49.985378,73.844299 49.903450,73.078636 
	C48.912125,71.412498 47.981174,70.071762 47.050224,68.731033 
	C48.594166,67.890068 50.138111,67.049095 51.963379,66.433548 
	C52.244705,66.658966 52.405964,66.654572 52.536095,66.882477 
	C53.410332,68.056152 54.154434,69.001930 54.898537,69.947708 
z"/>
<path fill="#FFFFFF" opacity="1.000000" stroke="none" 
	d="
M125.000687,68.004356 
	C127.041763,67.711372 129.082840,67.418381 131.523865,67.139389 
	C132.599289,68.588051 134.165543,70.366920 133.770935,71.388084 
	C132.857101,73.752998 131.107117,75.953171 127.479347,74.488548 
	C126.420311,72.074196 125.710503,70.039276 125.000687,68.004356 
z"/>
<path fill="#FFFFFF" opacity="1.000000" stroke="none" 
	d="
M67.430069,74.796951 
	C66.359383,72.732811 65.689392,70.740883 65.015656,68.408829 
	C67.779274,68.068718 70.546616,68.068718 74.607994,68.068718 
	C73.630486,69.846512 72.954643,71.075661 72.402039,72.677002 
	C70.960426,73.655846 69.395592,74.262497 67.430069,74.796951 
z"/>
<path fill="#E9E9E9" opacity="1.000000" stroke="none" 
	d="
M124.749268,67.863678 
	C125.710503,70.039276 126.420311,72.074196 127.082451,74.416924 
	C125.295502,74.790718 123.556229,74.856697 121.391647,74.823708 
	C121.629837,72.474373 122.293327,70.224007 122.958603,67.615036 
	C123.472878,67.411957 123.985359,67.567474 124.749268,67.863678 
z"/>
<path fill="#E9E9E9" opacity="1.000000" stroke="none" 
	d="
M53.028610,63.232430 
	C51.290680,63.928410 49.681492,64.270653 48.072308,64.612900 
	C47.900120,61.908878 47.727928,59.204857 47.751518,56.144886 
	C54.241508,55.615864 55.573380,57.428253 53.028610,63.232430 
z"/>
<path fill="#FFFFFF" opacity="1.000000" stroke="none" 
	d="
M62.544765,67.185776 
	C62.543495,73.610291 59.263580,69.986557 56.391205,69.022614 
	C56.027790,68.836746 56.022739,68.665497 56.281082,68.179718 
	C56.783562,67.727211 56.937374,67.524513 57.005909,67.257095 
	C58.711727,67.209602 60.417549,67.162109 62.544765,67.185776 
z"/>
<path fill="#282828" opacity="1.000000" stroke="none" 
	d="
M54.947361,69.742737 
	C54.154434,69.001930 53.410332,68.056152 52.594513,66.826851 
	C53.334167,67.151848 54.145535,67.760368 55.013191,68.745834 
	C55.069485,69.122780 54.996185,69.537773 54.947361,69.742737 
z"/>
<path fill="#FFFFFF" opacity="1.000000" stroke="none" 
	d="
M70.809898,63.096146 
	C69.921326,63.825497 68.985229,63.929176 68.049133,64.032852 
	C68.088264,63.454632 68.088028,62.381409 68.172607,62.374683 
	C69.027908,62.306667 69.897087,62.413044 70.809898,63.096146 
z"/>
<path fill="#E9E9E9" opacity="1.000000" stroke="none" 
	d="
M56.754715,67.195221 
	C56.937374,67.524513 56.783562,67.727211 56.362694,67.936035 
	C56.288445,67.715706 56.395981,67.424530 56.754715,67.195221 
z"/>
<path fill="#282828" opacity="1.000000" stroke="none" 
	d="
M129.604233,61.589661 
	C129.557159,61.617355 129.651306,61.561970 129.604233,61.589661 
z"/>
<path fill="#FFFFFF" opacity="1.000000" stroke="none" 
	d="
M113.250000,62.750000 
	C113.300003,62.466667 113.599998,62.433334 113.899994,62.400002 
	C113.766663,62.599998 113.633331,62.799995 113.250000,62.750000 
z"/>
<path fill="#E9E9E9" opacity="1.000000" stroke="none" 
	d="
M159.739380,56.085800 
	C159.872208,56.481384 159.622452,56.632938 159.137726,56.463226 
	C159.166290,56.254860 159.317642,56.154793 159.739380,56.085800 
z"/>
<path fill="#FFFFFF" opacity="1.000000" stroke="none" 
	d="
M369.221863,58.542793 
	C373.612610,55.051994 375.164215,55.546684 377.226990,61.201691 
	C374.380127,60.680206 371.830658,59.796276 369.221863,58.542793 
z"/>
</svg>